<svg width="64" height="64" viewBox="0 0 64 64" fill="none" xmlns="http://www.w3.org/2000/svg">
<g clip-path="url(#clip0_2251_475)">
<path d="M64 0H0V64H64V0Z" fill="#DDFA2B"/>
<path d="M35.7884 20.3125H28.3224C28.1861 19.3466 27.9077 18.4886 27.4872 17.7386C27.0668 16.9773 26.527 16.3295 25.8679 15.7955C25.2088 15.2614 24.4474 14.8523 23.5838 14.5682C22.7315 14.2841 21.8054 14.142 20.8054 14.142C18.9986 14.142 17.4247 14.5909 16.0838 15.4886C14.7429 16.375 13.7031 17.6705 12.9645 19.375C12.2259 21.0682 11.8565 23.125 11.8565 25.5455C11.8565 28.0341 12.2259 30.125 12.9645 31.8182C13.7145 33.5114 14.7599 34.7898 16.1009 35.6534C17.4418 36.517 18.9929 36.9489 20.7543 36.9489C21.7429 36.9489 22.6577 36.8182 23.4986 36.5568C24.3509 36.2955 25.1065 35.9148 25.7656 35.4148C26.4247 34.9034 26.9702 34.2841 27.402 33.5568C27.8452 32.8295 28.152 32 28.3224 31.0682L35.7884 31.1023C35.5952 32.7045 35.1122 34.25 34.3395 35.7386C33.5781 37.2159 32.5497 38.5398 31.2543 39.7102C29.9702 40.8693 28.4361 41.7898 26.652 42.4716C24.8793 43.142 22.8736 43.4773 20.6349 43.4773C17.5213 43.4773 14.7372 42.7727 12.2827 41.3636C9.83949 39.9545 7.90767 37.9148 6.48722 35.2443C5.07812 32.5739 4.37358 29.3409 4.37358 25.5455C4.37358 21.7386 5.08949 18.5 6.52131 15.8295C7.95313 13.1591 9.89631 11.125 12.3509 9.72727C14.8054 8.31818 17.5668 7.61364 20.6349 7.61364C22.6577 7.61364 24.5327 7.89773 26.2599 8.46591C27.9986 9.03409 29.5384 9.86364 30.8793 10.9545C32.2202 12.0341 33.3111 13.358 34.152 14.9261C35.0043 16.4943 35.5497 18.2898 35.7884 20.3125Z" fill="#040404"/>
<path d="M28.2116 32.3125H35.6776C35.8139 31.3466 36.0923 30.4886 36.5128 29.7386C36.9332 28.9773 37.473 28.3295 38.1321 27.7955C38.7912 27.2614 39.5526 26.8523 40.4162 26.5682C41.2685 26.2841 42.1946 26.142 43.1946 26.142C45.0014 26.142 46.5753 26.5909 47.9162 27.4886C49.2571 28.375 50.2969 29.6705 51.0355 31.375C51.7741 33.0682 52.1435 35.125 52.1435 37.5455C52.1435 40.0341 51.7741 42.125 51.0355 43.8182C50.2855 45.5114 49.2401 46.7898 47.8991 47.6534C46.5582 48.517 45.0071 48.9489 43.2457 48.9489C42.2571 48.9489 41.3423 48.8182 40.5014 48.5568C39.6491 48.2955 38.8935 47.9148 38.2344 47.4148C37.5753 46.9034 37.0298 46.2841 36.598 45.5568C36.1548 44.8295 35.848 44 35.6776 43.0682L28.2116 43.1023C28.4048 44.7045 28.8878 46.25 29.6605 47.7386C30.4219 49.2159 31.4503 50.5398 32.7457 51.7102C34.0298 52.8693 35.5639 53.7898 37.348 54.4716C39.1207 55.142 41.1264 55.4773 43.3651 55.4773C46.4787 55.4773 49.2628 54.7727 51.7173 53.3636C54.1605 51.9545 56.0923 49.9148 57.5128 47.2443C58.9219 44.5739 59.6264 41.3409 59.6264 37.5455C59.6264 33.7386 58.9105 30.5 57.4787 27.8295C56.0469 25.1591 54.1037 23.125 51.6491 21.7273C49.1946 20.3182 46.4332 19.6136 43.3651 19.6136C41.3423 19.6136 39.4673 19.8977 37.7401 20.4659C36.0014 21.0341 34.4616 21.8636 33.1207 22.9545C31.7798 24.0341 30.6889 25.358 29.848 26.9261C28.9957 28.4943 28.4503 30.2898 28.2116 32.3125Z" fill="#040404"/>
</g>
<defs>
<clipPath id="clip0_2251_475">
<rect width="64" height="64" fill="white"/>
</clipPath>
</defs>
</svg>
