<svg width="192" height="192" viewBox="0 0 192 192" fill="none" xmlns="http://www.w3.org/2000/svg">
<g clip-path="url(#clip0_2252_479)">
<path d="M192 0H0V192H192V0Z" fill="#DDFA2B"/>
<path d="M107.365 62.9375H84.9673C84.5582 60.0398 83.723 57.4659 82.4617 55.2159C81.2003 52.9318 79.581 50.9886 77.6037 49.3864C75.6264 47.7841 73.3423 46.5568 70.7514 45.7045C68.1946 44.8523 65.4162 44.4261 62.4162 44.4261C56.9957 44.4261 52.2741 45.7727 48.2514 48.4659C44.2287 51.125 41.1094 55.0114 38.8935 60.125C36.6776 65.2045 35.5696 71.375 35.5696 78.6364C35.5696 86.1023 36.6776 92.375 38.8935 97.4545C41.1435 102.534 44.2798 106.369 48.3026 108.96C52.3253 111.551 56.9787 112.847 62.2628 112.847C65.2287 112.847 67.973 112.455 70.4957 111.67C73.0526 110.886 75.3196 109.744 77.2969 108.244C79.2742 106.71 80.9105 104.852 82.206 102.67C83.5355 100.489 84.456 98 84.9673 95.2045L107.365 95.3068C106.786 100.114 105.337 104.75 103.018 109.216C100.734 113.648 97.6492 117.619 93.7628 121.131C89.9105 124.608 85.3082 127.369 79.956 129.415C74.6378 131.426 68.6207 132.432 61.9048 132.432C52.5639 132.432 44.2116 130.318 36.848 126.091C29.5185 121.864 23.723 115.744 19.4616 107.733C15.2344 99.7216 13.1207 90.0227 13.1207 78.6364C13.1207 67.2159 15.2685 57.5 19.5639 49.4886C23.8594 41.4773 29.6889 35.375 37.0526 31.1818C44.4162 26.9545 52.7003 24.8409 61.9048 24.8409C67.973 24.8409 73.598 25.6932 78.7798 27.3977C83.9957 29.1023 88.6151 31.5909 92.6378 34.8636C96.6605 38.1023 99.9332 42.0739 102.456 46.7784C105.013 51.483 106.649 56.8693 107.365 62.9375Z" fill="#040404"/>
<path d="M84.6349 96.9375H107.033C107.442 94.0398 108.277 91.4659 109.538 89.2159C110.8 86.9318 112.419 84.9886 114.396 83.3864C116.374 81.7841 118.658 80.5568 121.249 79.7045C123.805 78.8523 126.584 78.4261 129.584 78.4261C135.004 78.4261 139.726 79.7727 143.749 82.4659C147.771 85.125 150.891 89.0114 153.107 94.125C155.322 99.2045 156.43 105.375 156.43 112.636C156.43 120.102 155.322 126.375 153.107 131.455C150.857 136.534 147.72 140.369 143.697 142.96C139.675 145.551 135.021 146.847 129.737 146.847C126.771 146.847 124.027 146.455 121.504 145.67C118.947 144.886 116.68 143.744 114.703 142.244C112.726 140.71 111.089 138.852 109.794 136.67C108.464 134.489 107.544 132 107.033 129.205L84.6349 129.307C85.2145 134.114 86.6633 138.75 88.9815 143.216C91.2656 147.648 94.3508 151.619 98.2372 155.131C102.089 158.608 106.692 161.369 112.044 163.415C117.362 165.426 123.379 166.432 130.095 166.432C139.436 166.432 147.788 164.318 155.152 160.091C162.482 155.864 168.277 149.744 172.538 141.733C176.766 133.722 178.879 124.023 178.879 112.636C178.879 101.216 176.732 91.5 172.436 83.4886C168.141 75.4773 162.311 69.375 154.947 65.1818C147.584 60.9545 139.3 58.8409 130.095 58.8409C124.027 58.8409 118.402 59.6932 113.22 61.3977C108.004 63.1023 103.385 65.5909 99.3622 68.8636C95.3395 72.1023 92.0668 76.0739 89.544 80.7784C86.9872 85.483 85.3509 90.8693 84.6349 96.9375Z" fill="#040404"/>
</g>
<defs>
<clipPath id="clip0_2252_479">
<rect width="192" height="192" fill="white"/>
</clipPath>
</defs>
</svg>
