<svg width="32" height="32" viewBox="0 0 32 32" fill="none" xmlns="http://www.w3.org/2000/svg">
<circle cx="16" cy="16" r="16" fill="#3B99FC"/>
<path fill-rule="evenodd" clip-rule="evenodd" d="M22.2992 11.9384C18.8202 8.46495 13.1796 8.46495 9.70063 11.9384L9.24106 12.3972C9.06711 12.5709 9.06711 12.8525 9.24106 13.0262L10.6734 14.4562C10.7603 14.543 10.9014 14.543 10.9883 14.4562L11.6054 13.8401C14.0324 11.417 17.9674 11.417 20.3945 13.8401L20.9707 14.4154C21.0576 14.5022 21.1987 14.5022 21.2856 14.4154L22.7179 12.9854C22.8919 12.8117 22.8919 12.5301 22.7179 12.3565L22.2992 11.9384ZM26.5361 16.1686L25.2614 14.8959C25.0874 14.7222 24.8054 14.7222 24.6314 14.8959L20.5519 18.9689C20.5084 19.0123 20.4379 19.0123 20.3944 18.9689L16.3148 14.8958L16.3148 14.8958C16.1409 14.7221 15.8588 14.7221 15.6849 14.8958L11.6055 18.9689C11.562 19.0123 11.4915 19.0123 11.448 18.9689L7.3684 14.8958C7.19445 14.7221 6.91242 14.7221 6.73847 14.8958L5.46371 16.1685C5.28976 16.3422 5.28976 16.6238 5.46371 16.7974L11.2118 22.5364C11.3858 22.7101 11.6678 22.7101 11.8418 22.5364L15.9212 18.4633C15.9647 18.4199 16.0352 18.4199 16.0787 18.4633L20.1582 22.5364C20.3322 22.7101 20.6142 22.7101 20.7882 22.5364L26.5361 16.7975C26.7101 16.6238 26.7101 16.3423 26.5361 16.1686Z" fill="white"/>
</svg>
