<svg width="32" height="32" viewBox="0 0 32 32" fill="none" xmlns="http://www.w3.org/2000/svg">
<circle cx="16" cy="16" r="16" fill="#F7F9FB"/>
<path d="M25.6115 6L17.2776 12.25L18.8273 8.56667L25.6115 6Z" fill="#E17726" stroke="#E17726" stroke-width="0.25" stroke-linecap="round" stroke-linejoin="round"/>
<path d="M6.38843 6L14.6481 12.3083L13.1726 8.56666L6.38843 6Z" fill="#E27625" stroke="#E27625" stroke-width="0.25" stroke-linecap="round" stroke-linejoin="round"/>
<path d="M22.6107 20.4916L20.3933 23.9249L25.1414 25.2499L26.5015 20.5666L22.6107 20.4916Z" fill="#E27625" stroke="#E27625" stroke-width="0.25" stroke-linecap="round" stroke-linejoin="round"/>
<path d="M5.50635 20.5666L6.85822 25.2499L11.5981 23.9249L9.38888 20.4916L5.50635 20.5666Z" fill="#E27625" stroke="#E27625" stroke-width="0.25" stroke-linecap="round" stroke-linejoin="round"/>
<path d="M11.3423 14.6916L10.0234 16.7083L14.722 16.925L14.5654 11.8L11.3423 14.6916Z" fill="#E27625" stroke="#E27625" stroke-width="0.25" stroke-linecap="round" stroke-linejoin="round"/>
<path d="M20.6572 14.6917L17.3848 11.7417L17.2776 16.925L21.9762 16.7084L20.6572 14.6917Z" fill="#E27625" stroke="#E27625" stroke-width="0.25" stroke-linecap="round" stroke-linejoin="round"/>
<path d="M11.5981 23.9249L14.442 22.5333L11.9938 20.6L11.5981 23.9249Z" fill="#E27625" stroke="#E27625" stroke-width="0.25" stroke-linecap="round" stroke-linejoin="round"/>
<path opacity="0.8" d="M17.5579 22.5333L20.3935 23.9249L20.006 20.6L17.5579 22.5333Z" fill="#E27625" stroke="#E27625" stroke-width="0.25" stroke-linecap="round" stroke-linejoin="round"/>
<path d="M20.3935 23.925L17.5579 22.5334L17.7886 24.4L17.7639 25.1917L20.3935 23.925Z" fill="#D5BFB2" stroke="#D5BFB2" stroke-width="0.25" stroke-linecap="round" stroke-linejoin="round"/>
<path d="M11.5981 23.925L14.236 25.1917L14.2195 24.4L14.442 22.5334L11.5981 23.925Z" fill="#D5BFB2" stroke="#D5BFB2" stroke-width="0.25" stroke-linecap="round" stroke-linejoin="round"/>
<path d="M14.2853 19.3666L11.9277 18.6667L13.5928 17.8917L14.2853 19.3666Z" fill="#233447" stroke="#233447" stroke-width="0.25" stroke-linecap="round" stroke-linejoin="round"/>
<path d="M17.7146 19.3666L18.4071 17.8917L20.0804 18.6667L17.7146 19.3666Z" fill="#233447" stroke="#233447" stroke-width="0.25" stroke-linecap="round" stroke-linejoin="round"/>
<path d="M11.5981 23.9249L12.0103 20.4916L9.38892 20.5666L11.5981 23.9249Z" fill="#CC6228" stroke="#CC6228" stroke-width="0.25" stroke-linecap="round" stroke-linejoin="round"/>
<path d="M19.9895 20.4916L20.3934 23.9249L22.6108 20.5666L19.9895 20.4916Z" fill="#CC6228" stroke="#CC6228" stroke-width="0.25" stroke-linecap="round" stroke-linejoin="round"/>
<path d="M21.9762 16.7083L17.2776 16.9249L17.7145 19.3666L18.4069 17.8916L20.0803 18.6666L21.9762 16.7083Z" fill="#CC6228" stroke="#CC6228" stroke-width="0.25" stroke-linecap="round" stroke-linejoin="round"/>
<path d="M11.9276 18.6666L13.5927 17.8916L14.2852 19.3666L14.722 16.9249L10.0234 16.7083L11.9276 18.6666Z" fill="#CC6228" stroke="#CC6228" stroke-width="0.25" stroke-linecap="round" stroke-linejoin="round"/>
<path d="M10.0237 16.7083L11.9938 20.5999L11.9278 18.6666L10.0237 16.7083Z" fill="#E27525" stroke="#E27525" stroke-width="0.25" stroke-linecap="round" stroke-linejoin="round"/>
<path d="M20.0803 18.6666L20.0061 20.5999L21.9762 16.7083L20.0803 18.6666Z" fill="#E27525" stroke="#E27525" stroke-width="0.25" stroke-linecap="round" stroke-linejoin="round"/>
<path d="M14.7223 16.9249L14.2854 19.3666L14.8377 22.2499L14.9614 18.4499L14.7223 16.9249Z" fill="#E27525" stroke="#E27525" stroke-width="0.25" stroke-linecap="round" stroke-linejoin="round"/>
<path d="M17.2777 16.9249L17.0469 18.4417L17.1623 22.2499L17.7146 19.3666L17.2777 16.9249Z" fill="#E27525" stroke="#E27525" stroke-width="0.25" stroke-linecap="round" stroke-linejoin="round"/>
<path d="M17.7144 19.3667L17.1621 22.25L17.5578 22.5334L20.006 20.6L20.0802 18.6667L17.7144 19.3667Z" fill="#F5841F" stroke="#F5841F" stroke-width="0.25" stroke-linecap="round" stroke-linejoin="round"/>
<path d="M11.9277 18.6667L11.9937 20.6L14.4419 22.5334L14.8376 22.25L14.2853 19.3667L11.9277 18.6667Z" fill="#F5841F" stroke="#F5841F" stroke-width="0.25" stroke-linecap="round" stroke-linejoin="round"/>
<path d="M17.7641 25.1917L17.7887 24.4L17.5745 24.2166H14.4256L14.2195 24.4L14.236 25.1917L11.5981 23.925L12.5214 24.6916L14.3926 26H17.5991L19.4786 24.6916L20.3936 23.925L17.7641 25.1917Z" fill="#C0AC9D" stroke="#C0AC9D" stroke-width="0.25" stroke-linecap="round" stroke-linejoin="round"/>
<path d="M17.5577 22.5333L17.162 22.25H14.8375L14.4418 22.5333L14.2192 24.4L14.4253 24.2166H17.5742L17.7886 24.4L17.5577 22.5333Z" fill="#161616" stroke="#161616" stroke-width="0.25" stroke-linecap="round" stroke-linejoin="round"/>
<path d="M25.9659 12.6583L26.6666 9.20833L25.6114 6L17.5579 12.0417L20.6572 14.6916L25.0344 15.9833L25.9988 14.8417L25.5785 14.5333L26.2461 13.9167L25.7351 13.5167L26.4028 13L25.9659 12.6583Z" fill="#763E1A" stroke="#763E1A" stroke-width="0.25" stroke-linecap="round" stroke-linejoin="round"/>
<path d="M5.33325 9.20833L6.04217 12.6583L5.58879 13L6.26473 13.5167L5.75365 13.9167L6.42135 14.5333L6.00095 14.8417L6.9654 15.9833L11.3426 14.6916L14.4419 12.0417L6.38838 6L5.33325 9.20833Z" fill="#763E1A" stroke="#763E1A" stroke-width="0.25" stroke-linecap="round" stroke-linejoin="round"/>
<path d="M25.0344 15.9833L20.6573 14.6917L21.9762 16.7083L20.0061 20.6L22.6109 20.5666H26.5017L25.0344 15.9833Z" fill="#F5841F" stroke="#F5841F" stroke-width="0.25" stroke-linecap="round" stroke-linejoin="round"/>
<path d="M11.3425 14.6917L6.96539 15.9833L5.50635 20.5666H9.38888L11.9937 20.6L10.0236 16.7083L11.3425 14.6917Z" fill="#F5841F" stroke="#F5841F" stroke-width="0.25" stroke-linecap="round" stroke-linejoin="round"/>
<path d="M17.2775 16.925L17.5577 12.0416L18.8272 8.56665H13.1724L14.4418 12.0416L14.7221 16.925L14.8292 18.4583L14.8375 22.25H17.162L17.1703 18.4583L17.2775 16.925Z" fill="#F5841F" stroke="#F5841F" stroke-width="0.25" stroke-linecap="round" stroke-linejoin="round"/>
</svg>
